<svg height="480pt" viewBox="0 0 480.01367 480" width="480pt" xmlns="http://www.w3.org/2000/svg"><path d="m402.253906 429.578125c-.039062-.28125 0-.5625-.046875-.832031l-11.449219-68.730469h1.246094c7.617188 0 14.617188-3.496094 19.1875-9.589844 4.574219-6.097656 5.980469-13.785156 3.847656-21.097656l-12.707031-43.769531c-3.605469-20.359375-20.222656-35.445313-40.476562-37.34375 3.574219-7.949219 4.445312-16.972656 2.253906-26.007813-3.511719-14.445312-15.128906-25.878906-29.566406-29.160156-12.152344-2.726563-24.625.058594-34.191407 7.699219-9.5625 7.636718-15.050781 19.039062-15.050781 31.261718 0 6.441407 1.59375 12.71875 4.542969 18.34375-13.476562 4.496094-24.324219 15.160157-28.847656 29.28125-3.78125 11.800782-12.644532 21.910157-24.335938 27.757813-.605468.304687-1.132812.730469-1.703125 1.089844-2.246093-3.65625-5.558593-6.679688-9.800781-8.398438l-59.328125-24.105469c8.609375-8.742187 12.914063-21.207031 10.984375-34.078124-2.589844-17.402344-17.183594-31.53125-34.6875-33.601563-11.421875-1.34375-22.871094 2.214844-31.40625 9.800781-8.546875 7.582032-13.449219 18.496094-13.449219 29.910156 0 5.703126 1.28125 11.214844 3.542969 16.28125-1.109375-.152343-2.285156-.273437-3.566406-.273437-24.832032 0-88.410156 24.242187-95.847656 62.488281-3.351563 17.3125-.648438 31.886719 7.824218 42.160156 8.398438 10.183594 21.871094 15.351563 40.023438 15.351563 5.582031 0 11.480468-1.632813 17.742187-4.832031l-14.269531 71.792968c-.882812 4.441407-.367188 8.902344 1.144531 13.039063h-45.851562v16h144c.523437 0 1.058593-.054687 1.570312-.160156l29.28125-5.855469c1.894531-.128906 3.75-.511719 5.558594-1.113281l84.382813-16.871094h119.207031c1.824219 0 3.578125-.613281 5-1.75l80-64-10-12.496094zm-353.007812-61.5625c-13.152344 0-22.472656-3.207031-27.695313-9.542969-5.25-6.359375-6.832031-16.640625-4.457031-28.921875 4.71875-24.199219 45.574219-43.421875 69.886719-48.292969-.335938.871094-.789063 1.664063-1.03125 2.589844l-14.558594 73.234375c-10.984375 8.902344-18.089844 10.933594-22.144531 10.933594zm20.894531 92.96875c-1.582031-1.929687-2.214844-4.449219-1.734375-6.886719l33.136719-166.671875c.910156-3.527343 4.160156-5.976562 7.742187-5.976562.289063 0 .585938.023437.871094.054687l8.25.914063c3.625.367187 7.113281-1.722657 8.382812-5.167969 1.28125-3.449219.046876-7.320312-2.992187-9.394531-6.574219-4.496094-10.503906-11.902344-10.503906-19.832031 0-6.847657 2.9375-13.398438 8.074219-17.949219 5.191406-4.617188 11.894531-6.671875 18.894531-5.867188 10.472656 1.242188 19.191406 9.679688 20.742187 20.082031 1.683594 11.207032-4.484375 21.910157-14.992187 26.03125-3.046875 1.183594-5.054688 4.128907-5.078125 7.398438-.023438 3.273438 1.953125 6.226562 4.992187 7.464844l73.230469 29.753906c2.335938.941406 3.539062 3.566406 2.746094 5.96875l-.007813.007812c-.417969 1.238282-1.289062 2.238282-2.480469 2.804688-1.183593.578125-2.527343.632812-3.753906.167969l-51.558594-19.335938c-2.289062-.847656-4.816406-.621093-6.886718.609375-2.089844 1.230469-3.503906 3.351563-3.839844 5.753906l-8 56c-.242188 1.695313.070312 3.421876.871094 4.925782l41.09375 76.28125c1.648437 3.070312.730468 6.863281-2.199219 8.863281-.375.257813-.816406.34375-1.222656.519531l-2.6875.535156c-.410157 0-.816407.089844-1.226563.007813-1.796875-.351563-3.34375-1.382813-4.359375-2.902344l-55.695312-83.535156c-1.757813-2.640625-4.886719-4.007813-8.023438-3.449219-3.121093.535156-5.625 2.863282-6.390625 5.945313l-20.914062 83.648437c-.933594 3.679688-4.246094 6.261719-8.070313 6.261719-2.488281 0-4.832031-1.109375-6.410156-3.03125zm81.082031 3.03125h-51.921875c.289063-.800781.617188-1.574219.824219-2.414063l16.527344-66.105468 44.371094 66.550781zm120.789063-24c-.519531 0-1.054688.058594-1.566407.160156l-66.441406 13.289063c.417969-4.351563-.367187-8.847656-2.582031-12.960938l-39.839844-73.960937 6.222657-43.535157 42.234374 15.839844c5.359376 2 11.117188 1.753906 16.261719-.703125 1.402344-.664062 2.671875-1.496093 3.855469-2.425781l3.210938 4.816406c5.246093 7.867188 15.566406 10.585938 24.03125 6.386719l8.671874-4.335937c11.054688-5.53125 20.261719-14.058594 26.617188-24.648438l3.878906-6.480469 4.558594 31.917969-25.335938 82.328125c-1.472656 4.800781-1.246093 9.738281.304688 14.3125zm48.394531 0c0-.007813.007812-.007813.007812-.015625l19.800782-59.390625 14.421875 57.671875c.152343.597656.402343 1.152344.59375 1.734375zm56.945312 0c-3.410156 0-6.378906-2.3125-7.203124-5.613281l-21.078126-84.320313c-.855468-3.457031-3.898437-5.921875-7.457031-6.058593-.09375-.007813-.199219-.007813-.304687-.007813-3.429688 0-6.496094 2.191406-7.582032 5.472656l-28.488281 85.457031c-1.769531 5.296876-9.6875 6.566407-13.015625 2.070313-1.417968-1.917969-1.832031-4.328125-1.128906-6.597656l25.855469-84.042969c.34375-1.125.441406-2.308594.273437-3.488281l-8-56c-.488281-3.351563-3.015625-6.039063-6.335937-6.710938-3.367188-.640625-6.714844.832031-8.449219 3.730469l-15.464844 25.789062c-4.789062 7.984376-11.726562 14.410157-20.054687 18.570313l-8.664063 4.335937c-1.265625.605469-2.800781.214844-3.566406-.945312l-3.945312-5.902344c-.601563-.914062-.496094-1.816406-.367188-2.265625.117188-.457031.460938-1.28125 1.445312-1.777343 15.519532-7.765626 27.34375-21.320313 32.425782-37.183594 3.925781-12.269532 15.222656-20.511719 28.105468-20.511719 3.335938 0 6.316407-2.070313 7.492188-5.183594 1.179688-3.113281.28125-6.640625-2.222656-8.832031-5.351563-4.679688-8.304688-11.0625-8.304688-17.976562 0-7.335938 3.296875-14.175782 9.042969-18.765626 5.824219-4.65625 13.148437-6.289062 20.671875-4.585937 8.4375 1.90625 15.496094 8.871094 17.550781 17.320313 2.175781 8.984374-.648437 17.960937-7.570312 24.007812-2.503907 2.191406-3.398438 5.710938-2.222657 8.832031 1.167969 3.121094 4.160157 5.183594 7.496094 5.183594h11.265625c14.488281 0 26.726563 10.367187 29.109375 24.65625.058594.3125.121094.617187.210938.914063l12.832031 44.199218c.703125 2.4375.238281 5-1.28125 7.03125-1.550781 2.03125-3.878906 3.199219-6.417969 3.199219h-4.269531l-14.609375-65.734375-15.625 3.472656 15.96875 71.855469 12.960938 77.757813c.496093 2.960937-.832032 5.050781-1.664063 6.035156-.832031.972656-2.664063 2.613281-5.65625 2.613281zm0 0"/><path d="m474.828125 96.519531-58.816406-22.046875v-16.175781c5.273437 1.015625 10.632812 1.589844 16 1.589844 8.992187 0 17.976562-1.421875 26.53125-4.277344 3.269531-1.097656 5.46875-4.144531 5.46875-7.59375v-40c0-2.566406-1.230469-4.984375-3.316407-6.496094-2.097656-1.503906-4.777343-1.925781-7.210937-1.085937-13.839844 4.605468-29.09375 4.605468-42.933594 0-2.449219-.839844-5.128906-.417969-7.21875 1.085937-2.085937 1.503907-3.320312 3.929688-3.320312 6.496094v66.457031l-58.8125 22.054688c-3.113281 1.167968-5.1875 4.152344-5.1875 7.488281v64c0 4.425781 3.578125 8 8 8h40c4.425781 0 8-3.574219 8-8v-24h32v24c0 4.425781 3.578125 8 8 8h40c4.425781 0 8-3.574219 8-8v-64c0-3.335937-2.070313-6.320313-5.183594-7.496094zm-58.816406-78.160156c10.546875 2.03125 21.457031 2.03125 32 0v23.632813c-10.484375 2.527343-21.511719 2.527343-32 0zm48 141.65625h-24v-24c0-4.421875-3.574219-8-8-8h-48c-4.421875 0-8 3.578125-8 8v24h-24v-50.457031l56-21 56 21zm0 0"/><path d="m16.011719.015625h16v16h-16zm0 0"/><path d="m16.011719 32.015625h16v16h-16zm0 0"/><path d="m32.011719 16.015625h16v16h-16zm0 0"/><path d="m.0117188 16.015625h16.0000002v16h-16.0000002zm0 0"/></svg>