<?xml version="1.0" encoding="UTF-8"?>
<svg xmlns="http://www.w3.org/2000/svg" id="Layer_1" data-name="Layer 1" viewBox="0 0 64 64" width="512" height="512"><path d="M62,62V60H59.017V55a1,1,0,0,0-1-1h-8a1,1,0,0,0-1,1v5H37V44a1,1,0,0,0-1-1H28a1,1,0,0,0-1,1V60H15V26a1,1,0,0,0-1-1H6a1,1,0,0,0-1,1V60H2v2ZM51.017,56h6v4h-6ZM29,45h6V60H29ZM7,27h6V60H7Z"/><path d="M32,20a8.009,8.009,0,0,0-8,8,7.929,7.929,0,0,0,.266,1.989,8,8,0,1,0,15.468,0A7.929,7.929,0,0,0,40,28,8.009,8.009,0,0,0,32,20Zm0,2a6.006,6.006,0,0,1,5.806,4.513,7.964,7.964,0,0,0-11.612,0A6.006,6.006,0,0,1,32,22Zm0,16a6,6,0,1,1,6-6A6.006,6.006,0,0,1,32,38Z"/><path d="M31.5,30h1a.5.5,0,0,1,.5.5h2a2.5,2.5,0,0,0-2-2.449V27H31v1.051A2.5,2.5,0,0,0,31.5,33h1a.5.5,0,0,1,0,1h-1a.5.5,0,0,1-.5-.5H29a2.5,2.5,0,0,0,2,2.449V37h2V35.949A2.5,2.5,0,0,0,32.5,31h-1a.5.5,0,0,1,0-1Z"/><path d="M10,22a8,8,0,1,0-8-8A8.009,8.009,0,0,0,10,22ZM10,8a6,6,0,1,1-6,6A6.006,6.006,0,0,1,10,8Z"/><path d="M10.5,16h-1a.5.5,0,0,1-.5-.5H7a2.5,2.5,0,0,0,2,2.449V19h2V17.949A2.5,2.5,0,0,0,10.5,13h-1a.5.5,0,0,1,0-1h1a.5.5,0,0,1,.5.5h2a2.5,2.5,0,0,0-2-2.449V9H9v1.051A2.5,2.5,0,0,0,9.5,15h1a.5.5,0,0,1,0,1Z"/><path d="M54,51a7.969,7.969,0,0,0,7.734-10.011,7.652,7.652,0,0,0,0-4A7.929,7.929,0,0,0,62,35a8,8,0,0,0-16,0,7.929,7.929,0,0,0,.266,1.989,7.652,7.652,0,0,0,0,4A7.969,7.969,0,0,0,54,51Zm0-22a6.006,6.006,0,0,1,5.806,4.513,7.964,7.964,0,0,0-11.612,0A6.006,6.006,0,0,1,54,29Zm0,4a6.006,6.006,0,0,1,5.806,4.513,7.964,7.964,0,0,0-11.612,0A6.006,6.006,0,0,1,54,33Zm0,4a6,6,0,1,1-6,6A6.006,6.006,0,0,1,54,37Z"/><path d="M54.5,45h-1a.5.5,0,0,1-.5-.5H51a2.5,2.5,0,0,0,2,2.449V48h2V46.949A2.5,2.5,0,0,0,54.5,42h-1a.5.5,0,0,1,0-1h1a.5.5,0,0,1,.5.5h2a2.5,2.5,0,0,0-2-2.449V38H53v1.051A2.5,2.5,0,0,0,53.5,44h1a.5.5,0,0,1,0,1Z"/><path d="M44,12V6a1,1,0,0,0-1-1H35a1,1,0,0,0-1,1v6a1,1,0,0,0,1,1h8A1,1,0,0,0,44,12Zm-2-1H36V7h6Z"/><rect x="47" y="6" width="4" height="2"/><rect x="47" y="10" width="4" height="2"/><path d="M54,10v4a1,1,0,0,0,1,1h6a1,1,0,0,0,1-1V10a3,3,0,0,0-1.969-2.806,3,3,0,1,0-4.062,0A3,3,0,0,0,54,10Zm4-6a1,1,0,1,1-1,1A1,1,0,0,1,58,4Zm-2,6a1,1,0,0,1,1-1h2a1,1,0,0,1,1,1v3H56Z"/></svg>
