<svg id="Layer_4" enable-background="new 0 0 256 256" height="512" viewBox="0 0 256 256" width="512" xmlns="http://www.w3.org/2000/svg"><g><path d="m67.4 115.2c1.3-4.5 3-10.1.8-17.5-1.5-5.2-4.7-7.3-7-8.1-6.7-2.3-14.7 2.5-16.9 4-6.9 1.8-11.1 4.9-12.4 9.4-1.4 5 1 10.8 7.3 17.2 2.2 2.2 1.9 2.7 1.1 4.4-2.5 5.4-1.6 9.9 10.6 18.1 2.4 1.7 13.1 9.3 18.8 3.9 4.9-4.7 1.2-15.2-2.3-20.7-2-3.5-1.4-6.1 0-10.7zm-1.8 26.9c-.5.5-3.6.6-11.3-4.5-6.3-4.2-8.3-6.7-8.9-8-.4-.8-.3-1.2.4-2.6 1.3-2.9 2.4-6.3-2.3-11.1-4.5-4.6-6.6-8.7-5.8-11.3 2.175-4.725 7.175-4.1 9.6-5.8 1.6-1.1 7.825-4.55 11.9-3.5 6.175 2.95 3.6 14.1 2.4 18.2-1.4 4.7-2.9 9.7.8 15.4 3.5 5.6 4.4 12 3.2 13.2z"/><path d="m220.3 90.5h15.1s3-.063 3-3-3-3-3-3h-15.1s-3 .125-3 3 3 3 3 3z"/><path d="m220.3 110.813h15.1s3-.063 3-3-3-3-3-3h-15.1s-3 .125-3 3 3 3 3 3z"/><path d="m220.3 110.813h15.1s3-.063 3-3-3-3-3-3h-15.1s-3 .125-3 3 3 3 3 3z"/><path d="m220.3 131.125h15.1s3-.063 3-3-3-3-3-3h-15.1s-3 .125-3 3 3 3 3 3z"/><path d="m220.3 131.125h15.1s3-.063 3-3-3-3-3-3h-15.1s-3 .125-3 3 3 3 3 3z"/><path d="m220.3 151.438h15.1s3-.063 3-3-3-3-3-3h-15.1s-3 .125-3 3 3 3 3 3z"/><path d="m220.3 151.438h15.1s3-.063 3-3-3-3-3-3h-15.1s-3 .125-3 3 3 3 3 3z"/><path d="m220.3 171.75h15.1s3-.063 3-3-3-3-3-3h-15.1s-3 .125-3 3 3 3 3 3z"/><path d="m211.4 178v-98c0-9.7-7.6-17.6-17.3-18-20.6-29.4-55.7-45-91.3-40.8-19.612 2.175-41.362 10.675-59.4 29.9-36.7 39.2-34.7 100.6 4.4 137.3 29.9 28.1 74.3 34.3 110.8 15.5-2.35 17.975 11.65 37.975 33.3 38.8 20.725.425 36.3-15.7 36.3-35 .3-19.95-16.853-30.028-16.8-29.7zm-24-115.2c-7.3 2.5-12.2 9.4-12.2 17.1v35.8c-3.117 6.133-12.033 18.467-13.7 27.5-.5 2.3-.8 4.6-1 7-.3 3.3-.5 5.8-2.3 9-4.617 9.05-24.95 22.383-27.8 21-3.65-3.367-2.7-19.4-2.7-19.4.3-8.4.8-24.1-11.9-32.3-5.3-3.3-11.1-4-16.7-4.7-11.267-1.383-12.933-2.717-14.4-6-1.3-3.5-.4-8.9 2.1-13.1 3.3-5.7 16.6-12.2 23.5-13.4 2.2-.55 2.9.4 4.5 1.7 2.4 2.1 5 3.8 7.8 5.3 3.3 1.8 9.3.2 13.8-1.3 2.1-.8 12.9-4.8 15.1-9.8 1.583-4.2-.167-8.95-14-13.2-22.5-7.333-15.167-12.917-13.6-17 5-7.7 9.5-10.6 14.6-9.6 4.7.9 8.5-.7 10.1-4.3 1.5-3.7.5-8-2.4-10.7 16.3 5.7 30.7 16.4 41.2 30.4zm-85.5-35.7c6.6 2.5 13.912 7.087 11.367 8.172-1.045.802-3.799 2.296-11.017 4.353-7.75 2-12.438-.313-18.35.575-4.3.9-5.7 3.9-6.8 6.1-1 2-1.4 2.7-2.8 3.1-4.9 1.3-6.1 2.5-10.6 7.1-1.6 1.7-3.9 4-7 7.1-6.8 6.7-14.1 4.5-17.8 2.7 14.5-21.4 37.4-35.7 63-39.2zm12.3 181.6c-50.3 0-91.1-40.8-91.1-91.1 0-16.2 4.3-32.2 12.6-46.2 3.3 1.8 15.238 6.725 25.3-3.4 3.2-3.1 5.5-5.5 7.2-7.2 4.3-4.4 4.5-4.7 7.8-5.5 4.1-1.1 5.6-4 6.6-6.2.9-1.9 1.3-2.6 2.7-2.9 3.575-.637 10.888 1.175 16.621-.157 6.704-1.543 18.079-4.793 18.079-11.043.1-3.3-2.5-6.2-5.9-8.4 6.567-.1 15.8 1 23.3 3 .3 2.1 1.331 4.134 3.072 6.032.58.632 2.445 1.618 2.64 3.72.201 1.458-.496 2.755-3.612 2.048-11.4-2.3-18.2 8.2-20.8 12.2-3.1 4.8-4 9.1-2.8 12.9 2.3 6.9 11 10 19.4 13 2.272.841 7.174 2.272 9.556 4.115 4.644 2.385-16.256 10.585-19.456 9.285-2.4-1.3-4.7-2.8-6.7-4.6-2.5-2-4.6-3.8-9.3-3-8 1.4-23.1 8.7-27.6 16.3-3.4 5.8-4.4 12.9-2.5 18.2 1.533 3.783 2.617 8.117 19.4 9.9 24.8 1.425 23.7 20.4 23.4 30.9 0 0-1.6 20.567 5.2 24.5 1.2.8 3.533 2.15 7.2.7 9.8-3.8 23.8-13.9 29.2-23.5 2.4-4.3 2.7-7.9 3-11.4.8-10.4 5.4-17.6 8.8-23.1v50.2c-6.9 4.1-12.1 10.5-14.8 18.1-14.3 8.2-30.2 12.6-46.5 12.6zm104.6 12.8c-5.8 11-18.19 16.11-26.6 15.3-14.9-.7-27-12.5-27.8-27.5-.6-11.2 5.3-21.7 15.2-26.9 1-.5 1.6-1.5 1.6-2.6v-99.9c0-6.7 5.4-12.1 12.1-12.1s12.1 5.4 12.1 12.1v99.8c0 1.1.6 2.1 1.6 2.6 14.1 7.6 19.4 25.1 11.8 39.2z"/><path d="m196.3 190.8v-101.1c0-1.7-1.3-3-3-3s-3 1.3-3 3v101.2c-9.4 1.7-15.7 10.6-14 20s10.6 15.7 20 14 15.7-10.6 14-20c-1.2-7.2-6.8-12.8-14-14.1zm-3 28.3c-6.2 0-11.3-5-11.3-11.3 0-6.2 5.267-11.3 11.3-11.3s11.4 5.2 11.3 11.4c-.1 6.3-5.1 11.2-11.3 11.2z"/></g></svg>