<?xml version="1.0" encoding="UTF-8"?>
<svg xmlns="http://www.w3.org/2000/svg" id="Layer_3" data-name="Layer 3" viewBox="0 0 64 64" width="512" height="512"><path d="M62,31H57.525A14.088,14.088,0,0,1,55,23v-.132a4,4,0,0,0,2.463-1.889A5.007,5.007,0,0,0,62,16a4.934,4.934,0,0,0-.6-2.348A4.929,4.929,0,0,0,63,10a5.006,5.006,0,0,0-5-5,4.886,4.886,0,0,0-1.077.122,5,5,0,0,0-9.846,0A4.886,4.886,0,0,0,46,5a5.006,5.006,0,0,0-5,5,4.929,4.929,0,0,0,1.6,3.652A4.934,4.934,0,0,0,42,16a5.007,5.007,0,0,0,4.537,4.979A4,4,0,0,0,49,22.868V23a14.088,14.088,0,0,1-2.525,8H33.525A14.088,14.088,0,0,1,31,23v-.132a4,4,0,0,0,2.463-1.889A5.007,5.007,0,0,0,38,16a4.934,4.934,0,0,0-.6-2.348A4.929,4.929,0,0,0,39,10a5.006,5.006,0,0,0-5-5,4.886,4.886,0,0,0-1.077.122,5,5,0,0,0-9.846,0A4.886,4.886,0,0,0,22,5a5.006,5.006,0,0,0-5,5,4.929,4.929,0,0,0,1.6,3.652A4.934,4.934,0,0,0,18,16a5.007,5.007,0,0,0,4.537,4.979A4,4,0,0,0,25,22.868V23a14.088,14.088,0,0,1-2.525,8H2a1,1,0,0,0-1,1A30.943,30.943,0,0,0,5.039,47.275,8.99,8.99,0,1,0,18,59.648a30.929,30.929,0,0,0,27.935.037A6.952,6.952,0,0,0,50,61h2a1,1,0,0,0,1-1,6.951,6.951,0,0,0-1.314-4.067A30.78,30.78,0,0,0,63,32,1,1,0,0,0,62,31ZM48.123,19.653a1,1,0,0,0-.993-.67A.549.549,0,0,0,47,19a3,3,0,0,1-3-3,2.96,2.96,0,0,1,.725-1.928,1,1,0,0,0-.25-1.506A2.97,2.97,0,0,1,43,10a3,3,0,0,1,3-3,2.953,2.953,0,0,1,1.542.442.992.992,0,0,0,1.069-.037,1.021,1.021,0,0,0,.433-.994A2.664,2.664,0,0,1,49,6a3,3,0,0,1,6,0,2.907,2.907,0,0,1-.048.439,1,1,0,0,0,1.506,1A2.953,2.953,0,0,1,58,7a3,3,0,0,1,3,3,2.97,2.97,0,0,1-1.475,2.566,1,1,0,0,0-.25,1.506A2.96,2.96,0,0,1,60,16a3,3,0,0,1-2.957,3c-.031,0-.142-.017-.173-.018a1.02,1.02,0,0,0-.993.67A1.987,1.987,0,0,1,55,20.7v-2.29l2.706-2.707a1,1,0,0,0-.152-1.539l-3-2a1,1,0,0,0-1.262.125L52,13.586l-1.293-1.293a1,1,0,0,0-1.262-.125l-3,2a1,1,0,0,0-.152,1.539L49,18.414V20.7A1.987,1.987,0,0,1,48.123,19.653ZM51,23V18a1,1,0,0,0-.293-.707L48.57,15.155l1.3-.868,1.42,1.42a1,1,0,0,0,1.414,0l1.42-1.42,1.3.868-2.137,2.138A1,1,0,0,0,53,18v5a16.1,16.1,0,0,0,2.161,8H48.839A16.1,16.1,0,0,0,51,23ZM24.123,19.653a1.013,1.013,0,0,0-.993-.67A.549.549,0,0,0,23,19a3,3,0,0,1-3-3,2.96,2.96,0,0,1,.725-1.928,1,1,0,0,0-.25-1.506A2.97,2.97,0,0,1,19,10a3,3,0,0,1,3-3,2.953,2.953,0,0,1,1.542.442.993.993,0,0,0,1.069-.037,1.021,1.021,0,0,0,.433-.994A2.664,2.664,0,0,1,25,6a3,3,0,0,1,6,0,2.907,2.907,0,0,1-.048.439,1,1,0,0,0,1.506,1A2.953,2.953,0,0,1,34,7a3,3,0,0,1,3,3,2.97,2.97,0,0,1-1.475,2.566,1,1,0,0,0-.25,1.506A2.96,2.96,0,0,1,36,16a3,3,0,0,1-2.957,3c-.031,0-.142-.017-.173-.018a1.021,1.021,0,0,0-.993.67A1.987,1.987,0,0,1,31,20.7v-2.29l2.706-2.707a1,1,0,0,0-.152-1.539l-3-2a1,1,0,0,0-1.262.125L28,13.586l-1.293-1.293a1,1,0,0,0-1.262-.125l-3,2a1,1,0,0,0-.152,1.539L25,18.414V20.7A1.987,1.987,0,0,1,24.123,19.653ZM27,23V18a1,1,0,0,0-.293-.707L24.57,15.155l1.3-.868,1.42,1.42a1,1,0,0,0,1.414,0l1.42-1.42,1.3.868-2.137,2.138A1,1,0,0,0,29,18v5a16.1,16.1,0,0,0,2.161,8H24.839A16.1,16.1,0,0,0,27,23Zm6.132,10-2.667,4H27a1,1,0,0,0-.768.36L21.613,42.9l-3.937-.788L15.9,38.553A1,1,0,0,0,15,38H3.636a29.146,29.146,0,0,1-.619-5ZM11,61a7,7,0,1,1,7-7A7.008,7.008,0,0,1,11,61Zm8.074-3.049A8.814,8.814,0,0,0,19.941,53h5.524l1.7,2.555A1,1,0,0,0,28,56h6.764L38,57.618V60.36a28.775,28.775,0,0,1-18.926-2.409ZM50,59a5.008,5.008,0,0,1-4.9-4H46a5.008,5.008,0,0,1,4.9,4Zm.3-4.514A6.965,6.965,0,0,0,46,53H44a1,1,0,0,0-1,1,6.951,6.951,0,0,0,1.416,4.2A28.917,28.917,0,0,1,40,59.864V57a1,1,0,0,0-.553-.9l-4-2A1,1,0,0,0,35,54H28.535l-1.7-2.555A1,1,0,0,0,26,51H19.475a8.981,8.981,0,0,0-12.8-4.889A28.817,28.817,0,0,1,4.129,40H14.382l1.723,3.447a1,1,0,0,0,.7.533l5,1A.932.932,0,0,0,22,45a1,1,0,0,0,.768-.36l4.7-5.64H31a1,1,0,0,0,.832-.445L35.535,33h5.847L39.1,37.553A1,1,0,0,0,39,38v4.323l-4.372,1.748A1,1,0,0,0,34,45v5a1,1,0,0,0,1,1h7a1,1,0,0,0,.316-.051L48.162,49h3.424l2.171,2.171A29.364,29.364,0,0,1,50.3,54.486Zm4.74-4.863-2.331-2.33A1,1,0,0,0,52,47H48a1,1,0,0,0-.316.051L41.838,49H36V45.677l4.372-1.748A1,1,0,0,0,41,43V38.236L43.618,33H60.983A28.749,28.749,0,0,1,55.038,49.623Z"/><path d="M11,11A5,5,0,1,0,6,6,5.006,5.006,0,0,0,11,11Zm0-8A3,3,0,1,1,8,6,3,3,0,0,1,11,3Z"/><path d="M37,28a1,1,0,0,0,1,1,5.006,5.006,0,0,0,5-5V22a1,1,0,0,0-1-1,5.006,5.006,0,0,0-5,5Zm2-2a3.006,3.006,0,0,1,2-2.829V24a3.006,3.006,0,0,1-2,2.829Z"/><path d="M54,42a1,1,0,0,0,1-1V39a5.006,5.006,0,0,0-5-5,1,1,0,0,0-1,1v2A5.006,5.006,0,0,0,54,42Zm-3-5.829A3.006,3.006,0,0,1,53,39v.829A3.006,3.006,0,0,1,51,37Z"/><path d="M58,55a1,1,0,0,0-1,1v2a5.006,5.006,0,0,0,5,5,1,1,0,0,0,1-1V60A5.006,5.006,0,0,0,58,55Zm3,5.829A3.006,3.006,0,0,1,59,58v-.829A3.006,3.006,0,0,1,61,60Z"/><path d="M11.707,49.293a1,1,0,0,0-1.414,0L8.707,50.879A5.787,5.787,0,0,0,7,55a4,4,0,0,0,8,0,5.787,5.787,0,0,0-1.707-4.121ZM11,57a2,2,0,0,1-2-2,3.8,3.8,0,0,1,1.121-2.707L11,51.414l.879.879A3.8,3.8,0,0,1,13,55,2,2,0,0,1,11,57Z"/><path d="M5.5,21H15V19H5.5a2.5,2.5,0,0,1,0-5H6a1,1,0,0,1,0,2H5v2H6a3,3,0,0,0,0-6H5.5a4.5,4.5,0,0,0,0,9Z"/><path d="M12,25H22V23H12a3,3,0,0,0,0,6h2V27H12a1,1,0,0,1,0-2Z"/></svg>
