<svg id="Layer_1" enable-background="new 0 0 512 512" height="512" viewBox="0 0 512 512" width="512" xmlns="http://www.w3.org/2000/svg"><g><path d="m88 104.5h16v15h-16z"/><path d="m120 104.5h16v15h-16z"/><path d="m88 136.5h16v15h-16z"/><path d="m120 136.5h16v15h-16z"/><path d="m376 104.5h16v15h-16z"/><path d="m408 104.5h16v15h-16z"/><path d="m376 136.5h16v15h-16z"/><path d="m408 136.5h16v15h-16z"/><path d="m88 248.5h16v15h-16z"/><path d="m408 248.5h16v15h-16z"/><path d="m467.107 424.5-28.943-28.942-46.664-93.329v-15.267c6.738 5.343 15.253 8.538 24.5 8.538 21.78 0 39.5-17.72 39.5-39.5s-17.72-39.5-39.5-39.5c-9.247 0-17.762 3.194-24.5 8.538v-24.538h-32v-34.591c10.134 10.82 24.541 17.591 40.5 17.591 6.342 0 12.566-1.063 18.499-3.16l-4.998-14.143c-4.324 1.528-8.866 2.303-13.501 2.303-22.332 0-40.5-18.168-40.5-40.5s18.168-40.5 40.5-40.5 40.5 18.168 40.5 40.5c0 11.613-4.999 22.686-13.713 30.377l9.926 11.246c11.939-10.537 18.787-25.708 18.787-41.623 0-30.603-24.897-55.5-55.5-55.5-15.959 0-30.366 6.771-40.5 17.591v-17.591h-207v17.591c-10.134-10.82-24.541-17.591-40.5-17.591-30.603 0-55.5 24.897-55.5 55.5s24.897 55.5 55.5 55.5c15.959 0 30.366-6.771 40.5-17.591v34.591h-32v24.538c-6.738-5.343-15.253-8.538-24.5-8.538-21.78 0-39.5 17.72-39.5 39.5s17.72 39.5 39.5 39.5c9.247 0 17.762-3.194 24.5-8.538v15.267l-46.664 93.328-28.943 28.943h-44.893v15h192v-15h-56.5v-23.282l29.906-89.718h19.094v32h143v-32h19.094l29.906 89.718v23.282h-168.5v15h304v-15zm-51.107-193c13.509 0 24.5 10.99 24.5 24.5s-10.991 24.5-24.5 24.5-24.5-10.99-24.5-24.5 10.991-24.5 24.5-24.5zm-39.5-16v81h-17v-81zm-264.5-47c-22.332 0-40.5-18.168-40.5-40.5s18.168-40.5 40.5-40.5 40.5 18.168 40.5 40.5-18.168 40.5-40.5 40.5zm23.5 47h17v32.5h15v-160.5h177v209h-49v-48h-79v48h-49v-32.5h-15v32.5h-17zm145 113h-49v-65h49zm-184.5-48c-13.509 0-24.5-10.99-24.5-24.5s10.991-24.5 24.5-24.5 24.5 10.99 24.5 24.5-10.991 24.5-24.5 24.5zm-29.893 144 17-17h37.393v17zm56.487-32h-30.459l40.5-81h16.959zm76.906-81h17v17h-17zm113 17h-17v-17h17zm66.865-17 40.5 81h-30.459l-27-81zm12.135 96h37.394l17 17h-54.394z"/><path d="m256 223.5c30.603 0 55.5-24.897 55.5-55.5s-24.897-55.5-55.5-55.5c-13.536 0-26.575 4.929-36.713 13.877l9.927 11.246c7.395-6.528 16.908-10.123 26.786-10.123 19.77 0 36.276 14.239 39.803 33h-17.53c-3.137-9.292-11.936-16-22.273-16s-19.136 6.708-22.273 16h-17.529c.841-4.478 2.43-8.794 4.715-12.745l-12.984-7.51c-4.86 8.402-7.429 18-7.429 27.755 0 30.603 24.897 55.5 55.5 55.5zm0-15c-19.77 0-36.276-14.239-39.803-33h17.53c3.137 9.292 11.936 16 22.273 16s19.136-6.708 22.273-16h17.53c-3.527 18.761-20.033 33-39.803 33zm0-49c4.687 0 8.5 3.813 8.5 8.5s-3.813 8.5-8.5 8.5-8.5-3.813-8.5-8.5 3.813-8.5 8.5-8.5z"/><path d="m184 232.5h16v15h-16z"/><path d="m312 232.5h16v15h-16z"/></g></svg>