<svg id="Layer_1" enable-background="new 0 0 512 512" height="512" viewBox="0 0 512 512" width="512" xmlns="http://www.w3.org/2000/svg"><g><path d="m272 279.402h16v15h-16z"/><path d="m304 279.402h16v15h-16z"/><path d="m416 318.402c30.603 0 55.5-24.897 55.5-55.5s-24.897-55.5-55.5-55.5-55.5 24.897-55.5 55.5 24.897 55.5 55.5 55.5zm0-96c22.332 0 40.5 18.168 40.5 40.5s-18.168 40.5-40.5 40.5-40.5-18.168-40.5-40.5 18.168-40.5 40.5-40.5z"/><path d="m484 367.402h-28.866c.241-1.475.366-2.978.366-4.5 0-15.163-12.336-27.5-27.5-27.5h-38.893l-26.803-26.804-10.606 10.607 63.197 63.196h69.105c6.893 0 12.5 5.607 12.5 12.5s-5.607 12.5-12.5 12.5h-80.894l-72-72h-115.606v-97h136.5v-15h-160c-30.603 0-55.5 24.897-55.5 55.5v40.5h-112v32h-24v87h31.5c12.958 0 23.5-10.542 23.5-23.5v-.5h128.5c17.369 0 31.5-14.131 31.5-31.5v-32.5h61.393l40 40h48l32 32h87.107c15.164 0 27.5-12.337 27.5-27.5s-12.336-27.499-27.5-27.499zm-79.893-17h23.893c6.893 0 12.5 5.607 12.5 12.5 0 1.564-.292 3.08-.841 4.5h-18.552zm-267.607 1h-57v-17h57zm-97-17h25v17h-25zm1 80.5c0 4.687-3.813 8.5-8.5 8.5h-16.5v-57h25zm160-32c0 9.098-7.402 16.5-16.5 16.5h-128.5v-33h120.5v-15h-24.5v-72.5c0-22.332 18.168-40.5 40.5-40.5h8.5zm122.606-7.5-25-25h26.787l25 25z"/><path d="m461.303 148.206-10.606-10.608-18.697 18.697-18.697-18.697-10.606 10.608 11.196 11.196h-139.786l11.196-11.196-10.606-10.608-18.697 18.697-18.697-18.697-10.606 10.608 11.196 11.196h-139.786l11.196-11.196-10.606-10.608-18.697 18.697-18.697-18.697-10.606 10.608 11.196 11.196h-61.893v15h61.893l-11.196 11.196 10.606 10.608 18.697-18.697 18.697 18.697 10.606-10.608-11.196-11.196h139.786l-11.196 11.196 10.606 10.608 18.697-18.697 18.697 18.697 10.606-10.608-11.196-11.196h139.786l-11.196 11.196 10.606 10.608 18.697-18.697 18.697 18.697 10.606-10.608-11.196-11.196h61.893v-15h-61.893z"/><path d="m362.107 95.402 11.196-11.196-10.606-10.608-18.697 18.697-18.697-18.697-10.606 10.608 11.196 11.196h-139.786l11.196-11.196-10.606-10.608-18.697 18.697-18.697-18.697-10.606 10.608 11.196 11.196h-149.893v15h149.893l-11.196 11.196 10.606 10.608 18.697-18.697 18.697 18.697 10.606-10.608-11.196-11.196h139.786l-11.196 11.196 10.606 10.608 18.697-18.697 18.697 18.697 10.606-10.608-11.196-11.196h149.893v-15z"/></g></svg>