<svg id="Capa_1" enable-background="new 0 0 512.008 512.008" height="512" viewBox="0 0 512.008 512.008" width="512" xmlns="http://www.w3.org/2000/svg"><g><g><path d="m362.938 280.782h33.453v-16.516h-33.453c-1.313-17.152-6.681-33.14-15.129-47.104l46.163-46.154-11.677-11.677-44.181 44.172c-18.044-21.43-44.288-35.65-73.852-37.921v-17.425c37.103-4.129 66.065-35.65 66.065-73.835 0-40.976-33.338-74.322-74.323-74.322s-74.323 33.346-74.323 74.323c0 38.185 28.961 69.715 66.065 73.835v17.425c-29.564 2.271-55.816 16.491-73.852 37.921l-44.181-44.181-11.676 11.677 46.163 46.163c-8.448 13.964-13.816 29.952-15.129 47.096h-16.937v16.516h16.937c2.271 29.564 16.491 55.816 37.921 73.852l-44.172 44.181 11.677 11.677 46.154-46.163c13.964 8.448 29.952 13.816 47.104 15.129v33.462h16.516v-33.453c17.144-1.313 33.14-6.681 47.104-15.129l46.154 46.163 11.677-11.677-44.172-44.181c21.412-18.037 35.641-44.29 37.904-73.854zm-92.978 81.392 11.693-23.379c3.997-8.002 7.234-16.376 9.728-24.981h45.436c-13.031 25.403-37.648 43.826-66.857 48.36zm-104.795-89.65c0-8.597 1.28-16.888 3.518-24.774h48.153c-1.387 8.184-2.122 16.475-2.122 24.774s.735 16.59 2.122 24.774h-48.153c-2.238-7.886-3.518-16.177-3.518-24.774zm66.065 0c0-8.316 1.007-16.599 2.577-24.774h44.395c1.569 8.175 2.577 16.458 2.577 24.774s-1.008 16.599-2.577 24.774h-44.395c-1.57-8.175-2.577-16.458-2.577-24.774zm24.774-80.623 10.868 21.743c2.832 5.657 5.095 11.578 7.077 17.59h-35.898c1.982-6.012 4.245-11.933 7.077-17.59zm90.839 80.623c0 8.597-1.28 16.888-3.518 24.774h-48.153c1.387-8.184 2.122-16.475 2.122-24.774s-.735-16.59-2.122-24.774h48.153c2.238 7.887 3.518 16.178 3.518 24.774zm-72.894 41.291c-1.982 6.012-4.245 11.933-7.077 17.59l-10.868 21.743-10.868-21.743c-2.833-5.657-5.095-11.578-7.077-17.59zm62.869-82.581h-45.436c-2.494-8.597-5.731-16.979-9.728-24.981l-11.693-23.379c29.208 4.535 53.825 22.958 66.857 48.36zm-138.62-156.903c0-31.876 25.939-57.806 57.806-57.806s57.806 25.93 57.806 57.806-25.939 57.806-57.806 57.806-57.806-25.93-57.806-57.806zm43.85 108.544-11.693 23.379c-3.997 8.002-7.234 16.376-9.728 24.981h-45.436c13.031-25.403 37.648-43.826 66.857-48.36zm-66.857 130.94h45.436c2.494 8.597 5.731 16.979 9.728 24.981l11.693 23.379c-29.209-4.535-53.826-22.958-66.857-48.36z"/><path d="m297.294 74.331c0-8.242-4.583-15.657-11.949-19.34l-39.341-19.671c-2.981-1.486-6.334-2.279-9.67-2.279-11.916 0-21.62 9.695-21.62 21.62v39.341c0 11.925 9.703 21.62 21.62 21.62 3.336 0 6.689-.793 9.67-2.279l39.341-19.671c7.366-3.684 11.949-11.1 11.949-19.341zm-19.34 4.567-39.341 19.671c-3.188 1.619-7.383-.966-7.383-4.567v-39.342c0-2.816 2.287-5.103 5.103-5.103.793 0 1.577.182 2.279.537l39.341 19.671c1.742.875 2.824 2.618 2.824 4.567s-1.08 3.69-2.823 4.566z"/><path d="m247.746 495.492h16.516v16.516h-16.516z"/><path d="m256.004 462.46c-18.275 0-35.245 9.084-45.386 24.287l-2.775 4.162 13.741 9.158 2.775-4.162c7.069-10.595 18.903-16.929 31.645-16.929s24.576 6.334 31.645 16.937l2.775 4.162 13.741-9.158-2.775-4.162c-10.14-15.211-27.111-24.295-45.386-24.295z"/><path d="m256.004 429.428c-23.511 0-45.601 9.15-62.216 25.773l-1.42 1.412 11.66 11.693 1.429-1.42c13.502-13.51 31.455-20.942 50.548-20.942s37.046 7.432 50.556 20.951l1.42 1.412 11.66-11.693-1.412-1.404c-16.624-16.632-38.714-25.782-62.225-25.782z"/><path d="m486.231 305.557c-6.788 0-13.428 2.75-18.226 7.548l-.182.182c-3.13-1.173-5.368-4.195-5.368-7.73v-3.155l.669-.339c9.778-4.88 15.847-14.708 15.847-25.641 0-15.806-12.866-28.672-28.672-28.672-20.62 0-37.393 16.772-37.393 37.393v11.157c0 36.98 30.092 67.064 67.064 67.064 17.664 0 32.033-14.369 32.033-32.033.001-14.213-11.56-25.774-25.772-25.774zm-6.26 41.29c-27.871 0-50.548-22.677-50.548-50.548v-11.157c0-11.512 9.365-20.876 20.876-20.876 6.706 0 12.156 5.459 12.156 12.156 0 4.633-2.577 8.795-6.714 10.868l-9.802 4.905v13.362c0 13.659 11.115 24.774 24.774 24.774h3.419l5.549-5.549c1.726-1.718 4.112-2.709 6.549-2.709 5.103 0 9.257 4.154 9.257 9.257.001 8.555-6.961 15.517-15.516 15.517z"/><path d="m462.068 449.751 5.938-5.938c7.069-7.069 10.967-16.467 10.967-26.475 0-20.653-16.797-37.459-37.45-37.459h-24.196c-20.653 0-37.45 16.805-37.45 37.459 0 10.009 3.898 19.415 10.967 26.492l5.938 5.929c.908 7.812 4.435 14.798 9.835 19.976-7.713 5.376-13.568 13.362-15.979 23.015l-4.823 19.258h87.23l-4.823-19.258c-2.411-9.654-8.258-17.639-15.979-23.015 5.39-5.178 8.916-12.172 9.825-19.984zm-44.743-53.356h24.196c11.536 0 20.934 9.398 20.934 20.942 0 3.815-1.082 7.432-2.981 10.628-2.61-4.212-6.747-7.416-11.826-8.688l-22.734-5.682c-1.833-.454-3.691-.685-5.558-.685-9.257 0-17.218 5.541-20.843 13.452-1.338-2.791-2.122-5.838-2.122-9.026 0-11.543 9.398-20.941 20.934-20.941zm34.519 99.097h-44.841c3.031-9.794 12.073-16.516 22.421-16.516 10.347 0 19.389 6.722 22.42 16.516zm-38.937-49.548v-10.067c0-3.559 2.899-6.45 6.45-6.45.52 0 1.049.066 1.561.19l22.726 5.682c1.354.339 2.296 1.544 2.296 2.94v7.705c0 9.109-7.407 16.516-16.516 16.516s-16.517-7.408-16.517-16.516z"/><path d="m129.012 429.75c-6.317-10.455-17.532-16.838-29.911-16.838s-23.593 6.383-29.911 16.838c-20.356 2.535-36.154 19.943-36.154 40.968 0 13.659 11.115 24.774 24.774 24.774h82.581c13.659 0 24.774-11.115 24.774-24.774 0-21.025-15.797-38.433-36.153-40.968zm11.379 49.226h-82.58c-4.558 0-8.258-3.708-8.258-8.258 0-13.659 11.115-24.774 24.774-24.774h5.103l3.155-6.309c3.146-6.293 9.472-10.207 16.516-10.207s13.37 3.914 16.516 10.207l3.155 6.309h5.103c13.659 0 24.774 11.115 24.774 24.774 0 4.55-3.699 8.258-8.258 8.258z"/><path d="m102.553 312.056c8.299-6.92 13.064-17.094 13.064-27.904 0-9.695-3.774-18.812-10.678-25.724-6.887-6.887-16.037-10.678-25.773-10.678h-1.42c-7.185 0-14.055 2.065-19.935 5.921-5.88-3.857-12.75-5.921-19.935-5.921h-1.42c-9.736 0-18.886 3.79-25.823 10.719-6.854 6.862-10.628 15.988-10.628 25.683 0 10.818 4.765 20.984 13.064 27.904l44.742 37.285zm-86.033-27.904c0-5.285 2.065-10.265 5.838-14.039 3.766-3.774 8.778-5.847 14.097-5.847h1.42c5.326 0 10.331 2.073 14.097 5.847l5.838 5.83 5.838-5.83c3.766-3.774 8.778-5.847 14.097-5.847h1.42c5.326 0 10.331 2.073 14.13 5.871 3.741 3.749 5.805 8.729 5.805 14.014 0 5.896-2.593 11.446-7.127 15.22l-34.164 28.466-34.164-28.466c-4.532-3.774-7.125-9.323-7.125-15.219z"/><path d="m33.036 82.589h16.516v16.516h-16.516z"/><path d="m66.069 82.589h16.516v16.516h-16.516z"/><path d="m99.101 82.589h16.516v16.516h-16.516z"/><path d="m16.52 132.137h34.849l4.691 18.763c2.098 8.407 9.612 14.27 18.267 14.27s16.169-5.863 18.267-14.27l4.691-18.762h34.849c9.109 0 16.516-7.407 16.516-16.516v-49.549c0-9.109-7.407-16.516-16.516-16.516h-115.614c-9.109 0-16.516 7.407-16.516 16.516v49.548c0 9.109 7.408 16.516 16.516 16.516zm0-66.064h115.613v49.548h-47.731l-7.82 31.273c-.52 2.073-3.98 2.073-4.501 0l-7.829-31.273h-47.732z"/><path d="m462.142 62.976c-1.453-7.63-8.159-13.419-16.202-13.419h-66.065c-9.109 0-16.516 7.407-16.516 16.516v66.065c0 9.109 7.408 16.516 16.516 16.516h66.065c8.043 0 14.749-5.789 16.202-13.419l49.862 16.615v-105.489zm-82.267 69.161v-66.064h66.065l.008 66.065h-66.073zm115.613-3.196-33.032-11.016v-37.64l33.032-11.016z"/></g></g></svg>